Bad Teacher

General

Format                           : MPEG-4
Format profile                   : Base Media
Codec ID                         : isom
File size                        : 2.46 GiB
Duration                         : 1h 37mn
Overall bit rate mode            : Variable
Overall bit rate                 : 3 602 Kbps
Writing application              : Lavf52.56.0

Video

ID                               : 1
Format                           : AVC
Format/Info                      : Advanced Video Codec
Format profile                   : Baseline@L3.1
Format settings, CABAC           : No
Format settings, ReFrames        : 2 frames
Codec ID                         : avc1
Codec ID/Info                    : Advanced Video Coding
Duration                         : 1h 37mn
Bit rate                         : 3 437 Kbps
Width                            : 1 280 pixels
Height                           : 688 pixels
Display aspect ratio             : 1.860
Frame rate mode                  : Constant
Frame rate                       : 23.976 fps
Color space                      : YUV
Chroma subsampling               : 4:2:0
Bit depth                        : 8 bits
Scan type                        : Progressive
Bits/(Pixel*Frame)               : 0.163
Stream size                      : 2.34 GiB (95%)
Writing library                  : x264 core 88


Audio

ID                               : 2
Format                           : AAC
Format/Info                      : Advanced Audio Codec
Format profile                   : LC
Codec ID                         : 40
Duration                         : 1h 37mn
Bit rate mode                    : Variable
Bit rate                         : 160 Kbps
Channel(s)                       : 2 channels
Channel positions                : Front: L R
Sampling rate                    : 48.0 KHz
Compression mode                 : Lossy
Stream size                      : 112 MiB (4%)

Brought to you by .KNIGHT.

Please Seed 

Please leave any request